<svg width="68" height="84" fill="none" xmlns="http://www.w3.org/2000/svg"><path d="M49.5 10.8c3.604 0 5.406 0 6.884.399a11.663 11.663 0 0 1 8.22 8.273C65 20.96 65 22.773 65 26.4v35.88c0 6.553 0 9.829-1.267 12.332a11.66 11.66 0 0 1-5.08 5.113C56.166 81 52.91 81 46.4 81H21.6c-6.51 0-9.766 0-12.253-1.275a11.661 11.661 0 0 1-5.08-5.113C3 72.109 3 68.832 3 62.28V26.4c0-3.627 0-5.44.396-6.928a11.663 11.663 0 0 1 8.22-8.273c1.479-.399 3.28-.399 6.884-.399m3.875 42.9 7.75 7.8 17.438-17.55M24.7 18.6h18.6c2.17 0 3.255 0 4.084-.425a3.887 3.887 0 0 0 1.694-1.704c.422-.835.422-1.927.422-4.111V9.24c0-2.184 0-3.276-.422-4.11a3.888 3.888 0 0 0-1.694-1.705C46.555 3 45.47 3 43.3 3H24.7c-2.17 0-3.255 0-4.084.425-.73.374-1.322.97-1.694 1.704-.422.835-.422 1.927-.422 4.111v3.12c0 2.184 0 3.276.422 4.11a3.893 3.893 0 0 0 1.694 1.705c.829.425 1.914.425 4.084.425Z" stroke="#2DB1FB" stroke-width="5" stroke-linecap="round" stroke-linejoin="round"/></svg>