<svg width="75" height="106" fill="none" xmlns="http://www.w3.org/2000/svg"><path d="M37.476 47.775a9.173 9.173 0 0 0-1.666 0c-12.014-.403-21.555-10.247-21.555-22.362C14.255 13.046 24.25 3 36.668 3c12.368 0 22.413 10.046 22.413 22.413-.05 12.115-9.59 21.959-21.605 22.362Zm-25.24 18.627C.02 74.58.02 87.907 12.236 96.034c13.882 9.288 36.648 9.288 50.53 0 12.216-8.178 12.216-21.504 0-29.632-13.831-9.237-36.598-9.237-50.53 0Z" stroke="#FBFBFB" stroke-width="5" stroke-linecap="round" stroke-linejoin="round"/></svg>