<svg width="82" height="86" fill="none" xmlns="http://www.w3.org/2000/svg"><path d="m28.333 37.286 8.445 8.571 19-19.286M32.133 72.43l6.165 8.343c.916 1.24 1.375 1.86 1.937 2.082a2.083 2.083 0 0 0 1.53 0c.562-.222 1.02-.842 1.937-2.082l6.165-8.344c1.237-1.675 1.856-2.512 2.611-3.152a8.397 8.397 0 0 1 3.47-1.761c.958-.23 1.989-.23 4.052-.23 5.902 0 8.853 0 11.18-.978a12.762 12.762 0 0 0 6.856-6.958C79 56.986 79 53.991 79 48V23.571c0-7.2 0-10.8-1.38-13.55a12.762 12.762 0 0 0-5.536-5.62C69.374 3 65.827 3 58.734 3H23.266c-7.094 0-10.641 0-13.35 1.401a12.763 12.763 0 0 0-5.536 5.62C3 12.77 3 16.37 3 23.57V48c0 5.99 0 8.986.964 11.349a12.763 12.763 0 0 0 6.855 6.958c2.328.979 5.28.979 11.181.979 2.063 0 3.094 0 4.051.229a8.398 8.398 0 0 1 3.47 1.761c.756.64 1.375 1.477 2.612 3.153Z" stroke="#2DB1FB" stroke-width="5" stroke-linecap="round" stroke-linejoin="round"/></svg>