<svg width="70" height="58" fill="none" xmlns="http://www.w3.org/2000/svg"><path d="M65.4 48.5 44.143 29m-18.286 0L4.6 48.5M3 12.75l26.128 18.575c2.116 1.505 3.173 2.256 4.324 2.548a6.301 6.301 0 0 0 3.096 0c1.15-.291 2.209-1.043 4.324-2.548L67 12.75M18.36 55h33.28c5.377 0 8.065 0 10.118-1.063a9.675 9.675 0 0 0 4.196-4.26C67 47.59 67 44.86 67 39.4V18.6c0-5.46 0-8.19-1.046-10.276a9.675 9.675 0 0 0-4.196-4.261C59.705 3 57.017 3 51.64 3H18.36c-5.377 0-8.065 0-10.118 1.063a9.676 9.676 0 0 0-4.196 4.26C3 10.41 3 13.14 3 18.6v20.8c0 5.46 0 8.19 1.046 10.276a9.676 9.676 0 0 0 4.196 4.261C10.295 55 12.983 55 18.36 55Z" stroke="#2DB1FB" stroke-width="5" stroke-linecap="round" stroke-linejoin="round"/></svg>