<svg width="81" height="101" fill="none" xmlns="http://www.w3.org/2000/svg"><path fill-rule="evenodd" clip-rule="evenodd" d="M55.275 27.685a2.513 2.513 0 0 1-2.512-2.513V5.064H20.1a5.026 5.026 0 0 0-5.025 5.027v70.376a5.026 5.026 0 0 0 5.025 5.027h50.25a5.026 5.026 0 0 0 5.025-5.027V27.685h-20.1ZM80.4 25.172v55.295c0 5.553-4.5 10.054-10.05 10.054H20.1c-5.55 0-10.05-4.501-10.05-10.054V10.091C10.05 4.538 14.55.037 20.1.037h35.175L80.4 25.172ZM57.788 9.66 70.78 22.658H57.788V9.66Z" fill="#FBFBFB"/><path fill-rule="evenodd" clip-rule="evenodd" d="M2.513 10.09a2.513 2.513 0 0 1 2.512 2.514v72.89c0 5.553 4.5 10.054 10.05 10.054h52.763a2.513 2.513 0 0 1 0 5.027H15.075C6.749 100.575 0 93.823 0 85.495v-72.89a2.513 2.513 0 0 1 2.513-2.514Z" fill="#FBFBFB"/><path fill-rule="evenodd" clip-rule="evenodd" d="M62.076 43.502a2.514 2.514 0 0 1 0 3.554L40.2 68.941l-11.827-11.83a2.514 2.514 0 0 1 3.553-3.555l8.274 8.276 18.323-18.33a2.512 2.512 0 0 1 3.553 0Z" fill="#FBFBFB"/></svg>