<svg width="66" height="86" fill="none" xmlns="http://www.w3.org/2000/svg"><path d="M16.475 56.838 13 82.998l18.354-11.012c.598-.36.898-.539 1.217-.61a2 2 0 0 1 .858 0c.32.071.618.25 1.217.61L53 82.998l-3.472-26.172m1.175-44.832A6.098 6.098 0 0 0 54 15.295l5.236 2.169a6.098 6.098 0 0 1 3.3 7.968l-2.167 5.231a6.088 6.088 0 0 0 .002 4.67l2.163 5.23a6.099 6.099 0 0 1-3.301 7.97L54 50.7a6.099 6.099 0 0 0-3.301 3.297l-2.17 5.236a6.098 6.098 0 0 1-7.967 3.3l-5.231-2.167a6.098 6.098 0 0 0-4.666.004l-5.235 2.165a6.097 6.097 0 0 1-7.963-3.298L15.3 54a6.098 6.098 0 0 0-3.296-3.302l-5.236-2.169a6.096 6.096 0 0 1-3.302-7.963l2.167-5.232a6.098 6.098 0 0 0-.003-4.666l-2.164-5.24a6.098 6.098 0 0 1 3.301-7.97l5.232-2.167a6.098 6.098 0 0 0 3.3-3.293l2.168-5.236a6.098 6.098 0 0 1 7.968-3.3l5.232 2.167a6.097 6.097 0 0 0 4.665-.003l5.238-2.16a6.098 6.098 0 0 1 7.966 3.3l2.169 5.237v-.01Z" stroke="#2DB1FB" stroke-width="5" stroke-linecap="round" stroke-linejoin="round"/></svg>