<svg width="81" height="101" viewBox="0 0 81 101" fill="none" xmlns="http://www.w3.org/2000/svg">
<path fill-rule="evenodd" clip-rule="evenodd" d="M55.2753 27.685C53.8876 27.685 52.7628 26.5598 52.7628 25.1716V5.06405H20.1003C17.325 5.06405 15.0753 7.31466 15.0753 10.0909V80.4673C15.0753 83.2436 17.325 85.4942 20.1003 85.4942H70.3503C73.1256 85.4942 75.3753 83.2436 75.3753 80.4673V27.685H55.2753ZM80.4003 25.1716V80.4673C80.4003 86.0197 75.9007 90.5211 70.3503 90.5211H20.1003C14.5499 90.5211 10.0503 86.0197 10.0503 80.4673V10.0909C10.0503 4.53839 14.5499 0.0371704 20.1003 0.0371704H55.2753L80.4003 25.1716ZM57.7878 9.65971L70.7814 22.6581H57.7878V9.65971Z" fill="#FBFBFB"/>
<path fill-rule="evenodd" clip-rule="evenodd" d="M2.5125 10.0909C3.9001 10.0909 5.025 11.2162 5.025 12.6043V85.4941C5.025 91.0466 9.52464 95.5479 15.075 95.5479H67.8375C69.2252 95.5479 70.35 96.6732 70.35 98.0613C70.35 99.4495 69.2252 100.575 67.8375 100.575H15.075C6.74933 100.575 0 93.8229 0 85.4941V12.6043C0 11.2162 1.1249 10.0909 2.5125 10.0909Z" fill="#FBFBFB"/>
<path fill-rule="evenodd" clip-rule="evenodd" d="M62.0762 43.5018C63.0574 44.4833 63.0574 46.0748 62.0762 47.0563L40.1996 68.9411L28.3731 57.1101C27.3919 56.1286 27.3919 54.5371 28.3731 53.5556C29.3542 52.5741 30.9451 52.5741 31.9262 53.5556L40.1996 61.8321L58.5231 43.5018C59.5042 42.5203 61.0951 42.5203 62.0762 43.5018Z" fill="#FBFBFB"/>
</svg>
