<svg width="24" height="38" fill="none" xmlns="http://www.w3.org/2000/svg"><path fill-rule="evenodd" clip-rule="evenodd" d="M9.223 33.119V25.94h4.494v7.155c4.032.474 7.029 2.253 7.029 4.373H2.37c0-2.087 2.908-3.844 6.853-4.35Zm7.836-14.244H6.027L4.647 3.539S3.845.47 11.542.47c7.699 0 6.899 3.07 6.899 3.07l-1.382 15.336Z" fill="#2DB1FB"/><path fill-rule="evenodd" clip-rule="evenodd" d="M20.746 26.463c0 .964-.536 1.744-1.459 1.744H3.797c-.92 0-1.46-.78-1.46-1.744 0 0 1.063-5.09 3.147-5.09h11.749c2.374-.003 3.513 5.09 3.513 5.09Zm2.333-8.615c0 .916-.494 1.101-1.104 1.101-.61 0-1.104-.185-1.104-1.101v-7.015c0-.919.494-1.05 1.104-1.05.61 0 1.104.134 1.104 1.05v7.015Zm-20.871 0c0 .916-.494 1.101-1.104 1.101-.61 0-1.104-.185-1.104-1.101v-7.015c0-.919.494-1.05 1.104-1.05.61 0 1.104.134 1.104 1.05v7.015Z" fill="#2DB1FB"/></svg>