<svg width="84" height="76" fill="none" xmlns="http://www.w3.org/2000/svg"><path d="M24.45 34.111H13.14c-2.184 0-3.276 0-4.11.424a3.894 3.894 0 0 0-1.705 1.7c-.425.831-.425 1.92-.425 4.098V73m52.65-38.889h11.31c2.184 0 3.276 0 4.11.424.735.373 1.33.968 1.705 1.7.425.831.425 1.92.425 4.098V73m-17.55 0V15.444c0-4.356 0-6.534-.85-8.197a7.788 7.788 0 0 0-3.409-3.4C53.623 3 51.438 3 47.07 3H36.93c-4.368 0-6.553 0-8.221.848A7.788 7.788 0 0 0 25.3 7.247c-.85 1.663-.85 3.841-.85 8.197V73M81 73H3m35.1-54.444h7.8M38.1 34.11h7.8m-7.8 15.556h7.8" stroke="#2DB1FB" stroke-width="5" stroke-linecap="round" stroke-linejoin="round"/></svg>