<svg width="100" height="91" viewBox="0 0 100 91" fill="none" xmlns="http://www.w3.org/2000/svg">
<path d="M29.4375 23.5888V8.86213C29.4375 5.62463 32.0679 3.00006 35.3125 3.00006H64.6875C67.9323 3.00006 70.5625 5.62463 70.5625 8.86213V23.5888M3 44.0345V82.138C3 85.3756 5.63035 88.0001 8.875 88.0001H91.125C94.3698 88.0001 97 85.3756 97 82.138V44.0345M3 44.0345V29.4509C3 26.2133 5.63035 23.5888 8.875 23.5888H91.125C94.3698 23.5888 97 26.2133 97 29.4509V44.0345M3 44.0345L45.8746 60.0773C48.5342 61.0721 51.4658 61.0721 54.1254 60.0773L97 44.0345" stroke="#FBFBFB" stroke-width="5"/>
</svg>
