<svg width="82" height="86" viewBox="0 0 82 86" fill="none" xmlns="http://www.w3.org/2000/svg">
<path d="M28.3333 37.2857L36.7778 45.8571L55.7778 26.5714M32.1333 72.4285L38.2978 80.7715C39.2144 82.0122 39.673 82.6324 40.2349 82.8544C40.7268 83.0485 41.2732 83.0485 41.7651 82.8544C42.327 82.6324 42.7856 82.0122 43.7022 80.7715L49.8667 72.4285C51.1042 70.7533 51.7232 69.9158 52.4781 69.2764C53.4847 68.424 54.6728 67.8205 55.9488 67.515C56.9055 67.2857 57.937 67.2857 60 67.2857C65.9018 67.2857 68.8527 67.2857 71.1809 66.3068C74.2842 65.0023 76.7504 62.499 78.0356 59.349C79 56.9858 79 53.9905 79 48V23.5714C79 16.3707 79 12.7704 77.6193 10.0201C76.405 7.60088 74.4674 5.634 72.084 4.40134C69.3742 3 65.8275 3 58.7333 3H23.2667C16.1727 3 12.6257 3 9.91613 4.40134C7.53272 5.634 5.59498 7.60088 4.38058 10.0201C3 12.7704 3 16.3707 3 23.5714V48C3 53.9905 3 56.9858 3.96419 59.349C5.24977 62.499 7.71567 65.0023 10.8193 66.3068C13.1471 67.2857 16.0981 67.2857 22 67.2857C24.0629 67.2857 25.0943 67.2857 26.0513 67.515C27.3271 67.8205 28.5154 68.424 29.5219 69.2764C30.2767 69.9158 30.8956 70.7533 32.1333 72.4285Z" stroke="#2DB1FB" stroke-width="5" stroke-linecap="round" stroke-linejoin="round"/>
</svg>
