<svg width="84" height="76" viewBox="0 0 84 76" fill="none" xmlns="http://www.w3.org/2000/svg">
<path d="M24.45 34.1111H13.14C10.9558 34.1111 9.86369 34.1111 9.02944 34.535C8.29562 34.9079 7.69899 35.5026 7.32506 36.2344C6.9 37.0663 6.9 38.1552 6.9 40.3333V73M59.55 34.1111H70.86C73.0444 34.1111 74.1364 34.1111 74.9706 34.535C75.7046 34.9079 76.3009 35.5026 76.6749 36.2344C77.1 37.0663 77.1 38.1552 77.1 40.3333V73M59.55 73V15.4444C59.55 11.0885 59.55 8.91049 58.6998 7.24674C57.9522 5.78324 56.7588 4.59339 55.2912 3.84774C53.6228 3 51.4384 3 47.07 3H36.93C32.5616 3 30.3774 3 28.7089 3.84774C27.2412 4.59339 26.0479 5.78324 25.3002 7.24674C24.45 8.91049 24.45 11.0885 24.45 15.4444V73M81 73H3M38.1 18.5556H45.9M38.1 34.1111H45.9M38.1 49.6667H45.9" stroke="#2DB1FB" stroke-width="5" stroke-linecap="round" stroke-linejoin="round"/>
</svg>
