<svg width="26" height="36" viewBox="0 0 26 36" fill="none" xmlns="http://www.w3.org/2000/svg">
<path fill-rule="evenodd" clip-rule="evenodd" d="M0 13.4639C3.12593e-06 6.29998 5.8317 0.468262 12.9956 0.468262C20.1596 0.468262 26 6.29998 26 13.4639C26 26.0693 13.737 35.6524 13.737 35.6524C13.5277 35.8195 13.2678 35.9104 13 35.9104C12.7322 35.9104 12.4723 35.8195 12.263 35.6524C12.263 35.6524 -4.46561e-06 26.0693 0 13.4639ZM7.09094 13.4643C7.09095 10.2156 9.74698 7.55957 12.9957 7.55957C16.2444 7.55957 18.9091 10.2156 18.9091 13.4643C18.9091 16.713 16.2444 19.3778 12.9957 19.3778C9.74695 19.3778 7.09092 16.713 7.09094 13.4643Z" fill="#2DB1FB"/>
</svg>
