<svg width="75" height="106" viewBox="0 0 75 106" fill="none" xmlns="http://www.w3.org/2000/svg">
<path d="M37.4762 47.7754C36.9714 47.7249 36.3656 47.7249 35.8103 47.7754C23.796 47.3716 14.2554 37.5281 14.2554 25.413C14.2554 13.0455 24.2503 3.00006 36.6685 3.00006C49.036 3.00006 59.0814 13.0455 59.0814 25.413C59.0309 37.5281 49.4903 47.3716 37.4762 47.7754Z" stroke="#FBFBFB" stroke-width="5" stroke-linecap="round" stroke-linejoin="round"/>
<path d="M12.2358 66.4024C0.0197173 74.5801 0.0197173 87.9067 12.2358 96.0339C26.1176 105.322 48.8841 105.322 62.766 96.0339C74.982 87.8562 74.982 74.5296 62.766 66.4024C48.9346 57.1646 26.1681 57.1646 12.2358 66.4024Z" stroke="#FBFBFB" stroke-width="5" stroke-linecap="round" stroke-linejoin="round"/>
</svg>
