<svg width="24" height="38" viewBox="0 0 24 38" fill="none" xmlns="http://www.w3.org/2000/svg">
<path fill-rule="evenodd" clip-rule="evenodd" d="M9.22283 33.1189V25.9409H13.7171V33.0961C17.7488 33.5702 20.746 35.3488 20.746 37.4688H2.37012C2.37012 35.3821 5.27768 33.6251 9.22283 33.1189Z" fill="#2DB1FB"/>
<path fill-rule="evenodd" clip-rule="evenodd" d="M17.0588 18.8748H6.02724L4.64742 3.53914C4.64742 3.53914 3.84504 0.46875 11.5419 0.46875C19.241 0.46875 18.441 3.53914 18.441 3.53914L17.0588 18.8748Z" fill="#2DB1FB"/>
<path fill-rule="evenodd" clip-rule="evenodd" d="M20.7458 26.4628C20.7458 27.4275 20.2101 28.2067 19.2871 28.2067H3.79607C2.87773 28.2067 2.3374 27.4275 2.3374 26.4628C2.3374 26.4628 3.39951 21.3726 5.48432 21.3726H17.2325C19.6072 21.3702 20.7458 26.4628 20.7458 26.4628Z" fill="#2DB1FB"/>
<path fill-rule="evenodd" clip-rule="evenodd" d="M23.0788 17.8478C23.0788 18.7638 22.5849 18.9493 21.9749 18.9493C21.365 18.9493 20.8711 18.7638 20.8711 17.8478V10.8327C20.8711 9.91441 21.365 9.78223 21.9749 9.78223C22.5849 9.78223 23.0788 9.91673 23.0788 10.8327V17.8478Z" fill="#2DB1FB"/>
<path fill-rule="evenodd" clip-rule="evenodd" d="M2.20771 17.8478C2.20771 18.7638 1.71376 18.9493 1.10385 18.9493C0.493952 18.9493 0 18.7638 0 17.8478V10.8327C0 9.91441 0.493952 9.78223 1.10385 9.78223C1.71376 9.78223 2.20771 9.91673 2.20771 10.8327V17.8478Z" fill="#2DB1FB"/>
</svg>
