<svg width="60" height="60" viewBox="0 0 60 60" fill="none" xmlns="http://www.w3.org/2000/svg">
<path d="M57 57H7.8C6.11985 57 5.27976 57 4.63803 56.673C4.07355 56.3853 3.61461 55.9266 3.32697 55.362C3 54.7203 3 53.8803 3 52.2V3M57 15L40.6971 31.3029C40.1031 31.8969 39.8061 32.1939 39.4635 32.3052C39.1623 32.4033 38.8377 32.4033 38.5365 32.3052C38.1939 32.1939 37.8969 31.8969 37.3029 31.3029L31.6971 25.6971C31.1031 25.1031 30.8061 24.8061 30.4635 24.6948C30.1623 24.5967 29.8377 24.5967 29.5365 24.6948C29.1939 24.8061 28.8969 25.1031 28.3029 25.6971L15 39M57 15H45M57 15V27" stroke="#2DB1FB" stroke-width="5" stroke-linecap="round" stroke-linejoin="round"/>
</svg>
