<svg width="68" height="84" viewBox="0 0 68 84" fill="none" xmlns="http://www.w3.org/2000/svg">
<path d="M49.5 10.8C53.1037 10.8 54.9056 10.8 56.3839 11.1987C60.3953 12.2805 63.5291 15.4343 64.604 19.4718C65 20.9597 65 22.7731 65 26.4V62.28C65 68.8328 65 72.1088 63.7329 74.6118C62.6184 76.8134 60.8402 78.6031 58.6527 79.7247C56.1658 81 52.9108 81 46.4 81H21.6C15.0894 81 11.8341 81 9.34737 79.7247C7.15997 78.6031 5.38158 76.8134 4.26705 74.6118C3 72.1088 3 68.8328 3 62.28V26.4C3 22.7731 3 20.9597 3.3961 19.4718C4.47103 15.4343 7.60455 12.2805 11.6162 11.1987C13.0945 10.8 14.8964 10.8 18.5 10.8M22.375 53.7L30.125 61.5L47.5625 43.95M24.7 18.6H43.3C45.4704 18.6 46.5554 18.6 47.3843 18.1749C48.1135 17.801 48.706 17.2044 49.0776 16.4706C49.5 15.6363 49.5 14.5442 49.5 12.36V9.24C49.5 7.0558 49.5 5.96369 49.0776 5.12944C48.706 4.39562 48.1135 3.79899 47.3843 3.42506C46.5554 3 45.4704 3 43.3 3H24.7C22.5298 3 21.4447 3 20.6158 3.42506C19.8867 3.79899 19.2939 4.39562 18.9223 5.12944C18.5 5.96369 18.5 7.0558 18.5 9.24V12.36C18.5 14.5442 18.5 15.6363 18.9223 16.4706C19.2939 17.2044 19.8867 17.801 20.6158 18.1749C21.4447 18.6 22.5298 18.6 24.7 18.6Z" stroke="#2DB1FB" stroke-width="5" stroke-linecap="round" stroke-linejoin="round"/>
</svg>
