<svg width="37" height="38" viewBox="0 0 37 38" fill="none" xmlns="http://www.w3.org/2000/svg">
<path d="M36.453 17.6596L19.8113 1.0153C19.6394 0.841963 19.4349 0.704381 19.2095 0.610491C18.9842 0.516601 18.7425 0.468262 18.4984 0.468262C18.2543 0.468262 18.0126 0.516601 17.7873 0.610491C17.562 0.704381 17.3575 0.841963 17.1856 1.0153L0.543801 17.6596C0.195611 18.0078 0 18.4802 0 18.9726C0 19.4651 0.195611 19.9374 0.543801 20.2857C0.89199 20.6339 1.36424 20.8296 1.85665 20.8296C2.34907 20.8296 2.82131 20.6339 3.1695 20.2857L3.70574 19.7309V34.3224C3.73945 35.1874 4.11442 36.0039 4.7486 36.5931C5.38277 37.1823 6.2245 37.4963 7.08956 37.4663H12.0266C12.517 37.4663 12.9874 37.2715 13.3341 36.9246C13.6809 36.5778 13.8757 36.1074 13.8757 35.6169V26.555C13.8757 26.0646 14.0705 25.5942 14.4173 25.2473C14.7641 24.9005 15.2344 24.7057 15.7248 24.7057H21.2721C21.7625 24.7057 22.2328 24.9005 22.5796 25.2473C22.9263 25.5942 23.1211 26.0646 23.1211 26.555V35.6169C23.1211 36.1074 23.316 36.5778 23.6627 36.9246C24.0095 37.2715 24.4798 37.4663 24.9702 37.4663H29.9073C30.7723 37.4963 31.6141 37.1823 32.2482 36.5931C32.8824 36.0039 33.2574 35.1874 33.2911 34.3224V19.7309L33.8273 20.2857C33.9992 20.459 34.2038 20.5966 34.4291 20.6905C34.6544 20.7844 34.8961 20.8327 35.1402 20.8327C35.3843 20.8327 35.626 20.7844 35.8513 20.6905C36.0766 20.5966 36.2811 20.459 36.453 20.2857C36.6264 20.1138 36.7639 19.9092 36.8578 19.6839C36.9517 19.4585 37 19.2168 37 18.9726C37 18.7285 36.9517 18.4868 36.8578 18.2614C36.7639 18.0361 36.6264 17.8315 36.453 17.6596Z" fill="#2DB1FB"/>
</svg>
