<svg width="66" height="86" viewBox="0 0 66 86" fill="none" xmlns="http://www.w3.org/2000/svg">
<path d="M16.4746 56.8376L13 82.998L31.3536 71.986C31.9523 71.6268 32.2516 71.4472 32.5712 71.3768C32.8535 71.3148 33.1463 71.3148 33.4287 71.3768C33.7483 71.4472 34.0475 71.6268 34.6463 71.986L52.9999 82.998L49.5275 56.8264M50.7035 11.9936C51.3211 13.4876 52.5071 14.6752 53.9999 15.2952L59.2355 17.464C60.7299 18.0829 61.9167 19.27 62.5359 20.7642C63.1547 22.2584 63.1547 23.9373 62.5359 25.4315L60.3687 30.6634C59.7495 32.1583 59.7487 33.8389 60.3707 35.3328L62.5339 40.5632C62.8407 41.3036 62.9987 42.0968 62.9987 42.898C62.9991 43.6988 62.8411 44.4924 62.5347 45.2324C62.2283 45.9724 61.7787 46.6452 61.2123 47.2116C60.6455 47.778 59.9731 48.2272 59.2327 48.5336L54.0011 50.7004C52.5071 51.3184 51.3195 52.504 50.6995 53.9972L48.5307 59.2332C47.9119 60.7272 46.7247 61.9144 45.2307 62.5332C43.7363 63.1524 42.0575 63.1524 40.5635 62.5332L35.3319 60.366C33.8375 59.7488 32.1596 59.75 30.6664 60.3696L25.4308 62.5352C23.9373 63.1528 22.26 63.1524 20.7671 62.534C19.2741 61.9152 18.0877 60.7296 17.4684 59.2372L15.2991 53.9996C14.6814 52.5056 13.4956 51.318 12.0025 50.698L6.76699 48.5292C5.27352 47.9108 4.08676 46.7244 3.46764 45.2308C2.84852 43.7376 2.84768 42.0596 3.46532 40.5656L5.6324 35.3336C6.24975 33.8394 6.24851 32.1612 5.62888 30.6679L3.46492 25.4284C3.15812 24.6883 3.00012 23.8951 3 23.0939C2.99988 22.2928 3.1576 21.4995 3.46416 20.7593C3.77072 20.0192 4.22016 19.3467 4.78672 18.7803C5.35328 18.2139 6.02588 17.7647 6.76607 17.4584L11.9979 15.2912C13.4906 14.674 14.6774 13.4896 15.2979 11.9982L17.4665 6.76248C18.0854 5.26828 19.2725 4.08116 20.7667 3.46224C22.2608 2.84332 23.9396 2.84332 25.4336 3.46224L30.6656 5.6294C32.1595 6.24676 33.8379 6.24552 35.3311 5.62588L40.5687 3.4656C42.0627 2.847 43.7411 2.84716 45.2351 3.46592C46.7287 4.08472 47.9159 5.27152 48.5347 6.76532L50.7039 12.0026L50.7035 11.9936Z" stroke="#2DB1FB" stroke-width="5" stroke-linecap="round" stroke-linejoin="round"/>
</svg>
