<svg width="70" height="58" viewBox="0 0 70 58" fill="none" xmlns="http://www.w3.org/2000/svg">
<path d="M65.4 48.5L44.1427 29M25.8572 29L4.6001 48.5M3 12.75L29.1277 31.325C31.2435 32.8295 32.3014 33.5815 33.4522 33.8727C34.4685 34.1301 35.5315 34.1301 36.5478 33.8727C37.6986 33.5815 38.7565 32.8295 40.8723 31.325L67 12.75M18.36 55H51.64C57.0166 55 59.7046 55 61.7584 53.9373C63.5648 53.0026 65.0333 51.5111 65.9536 49.6765C67 47.5906 67 44.8606 67 39.4V18.6C67 13.1395 67 10.4092 65.9536 8.3236C65.0333 6.48901 63.5648 4.99745 61.7584 4.06269C59.7046 3 57.0166 3 51.64 3H18.36C12.9835 3 10.2952 3 8.2417 4.06269C6.43533 4.99745 4.96672 6.48901 4.04634 8.3236C3 10.4092 3 13.1395 3 18.6V39.4C3 44.8606 3 47.5906 4.04634 49.6765C4.96672 51.5111 6.43533 53.0026 8.2417 53.9373C10.2952 55 12.9835 55 18.36 55Z" stroke="#2DB1FB" stroke-width="5" stroke-linecap="round" stroke-linejoin="round"/>
</svg>
